# xmcd
#
# Track frame offsets:
#  150
#  5375
#  8340
#  11527
#  15280
#  19190
#  22667
#  25490
#  28352
#  31085
#  33872
#  37740
#  41227
#  44345
#  48052
#  51110
#  54782
#  58615
#  61770
#  64977
#  68762
#  71920
#  74987
#  77730
#  81522
#  84215
#  87255
#  90362
#  93882
#  96995
#  99715
#  103035
#  105495
#  108667
#
# Disc length: 1488 seconds
#
# Revision: 0
# Processed by: cddbd v1.4PL0 Copyright (c) Steve Scherf et al.
# Submitted via: AltoMP3_Maker 3.0
#
DISCID=a105ce22
DTITLE=Dave Ruben - Power Trio Blues Guitar
DYEAR=1900
DGENRE=
TTITLE0=Tuning
TTITLE1=West Side Blues, Example 1a
TTITLE2=Example 2a
TTITLE3=Example 3a
TTITLE4=Example 4a
TTITLE5=Example 5a
TTITLE6=Example 6a
TTITLE7=South Side Blues, Example1b
TTITLE8=Example 2b
TTITLE9=Example 3b
TTITLE10=Example 4b
TTITLE11=Example 5b
TTITLE12=Example 6b
TTITLE13=Example 7b
TTITLE14=Example 8b
TTITLE15=Example 9b
TTITLE16=Example 10b
TTITLE17=Example 11b
TTITLE18=Example 12b
TTITLE19=Example 13b
TTITLE20=Example 14b
TTITLE21=Example 15b
TTITLE22=Example 16b
TTITLE23=Example 17b
TTITLE24=Texas Blues, Example 1c
TTITLE25=Example 2c
TTITLE26=Example 3c
TTITLE27=Example 4c
TTITLE28=Example 5c
TTITLE29=Example 6c
TTITLE30=Example 7c
TTITLE31=Example 8c
TTITLE32=Example 9c
TTITLE33=Example 10c
EXTD=
EXTT0=
EXTT1=
EXTT2=
EXTT3=
EXTT4=
EXTT5=
EXTT6=
EXTT7=
EXTT8=
EXTT9=
EXTT10=
EXTT11=
EXTT12=
EXTT13=
EXTT14=
EXTT15=
EXTT16=
EXTT17=
EXTT18=
EXTT19=
EXTT20=
EXTT21=
EXTT22=
EXTT23=
EXTT24=
EXTT25=
EXTT26=
EXTT27=
EXTT28=
EXTT29=
EXTT30=
EXTT31=
EXTT32=
EXTT33=
PLAYORDER=
